<?xml version="1.0" encoding="UTF-8" standalone="no"?>
<svg
   xmlns:dc="http://purl.org/dc/elements/1.1/"
   xmlns:cc="http://creativecommons.org/ns#"
   xmlns:rdf="http://www.w3.org/1999/02/22-rdf-syntax-ns#"
   xmlns:svg="http://www.w3.org/2000/svg"
   xmlns="http://www.w3.org/2000/svg"
   xmlns:sodipodi="http://sodipodi.sourceforge.net/DTD/sodipodi-0.dtd"
   xmlns:inkscape="http://www.inkscape.org/namespaces/inkscape"
   width="0.4in"
   height="0.4in"
   viewBox="0 0 120 120"
   version="1.1"
   id="svg3723"
   sodipodi:docname="logo.svg"
   inkscape:version="0.92.4 (5da689c313, 2019-01-14)">
  <metadata
     id="metadata3729">
    <rdf:RDF>
      <cc:Work
         rdf:about="">
        <dc:format>image/svg+xml</dc:format>
        <dc:type
           rdf:resource="http://purl.org/dc/dcmitype/StillImage" />
      </cc:Work>
    </rdf:RDF>
  </metadata>
  <defs
     id="defs3727" />
  <sodipodi:namedview
     pagecolor="#ffffff"
     bordercolor="#666666"
     borderopacity="1"
     objecttolerance="10"
     gridtolerance="10"
     guidetolerance="10"
     inkscape:pageopacity="0"
     inkscape:pageshadow="2"
     inkscape:window-width="1366"
     inkscape:window-height="706"
     id="namedview3725"
     showgrid="false"
     inkscape:zoom="11.313709"
     inkscape:cx="10.691007"
     inkscape:cy="21.301335"
     inkscape:window-x="-8"
     inkscape:window-y="-8"
     inkscape:window-maximized="1"
     inkscape:current-layer="svg3723" />
  <path
     id="Sem nome" class="iconLogo"
     d="M 1.6084589,22.168378 C 47.765361,-19.788624 100.49855,15.244561 100.49855,15.244561 53.988245,12.743374 37.086584,25.795928 15.298805,45.06004 c -0.505349,0.483166 18.100143,1.888314 37.998009,60.24384 -0.077,0.28788 23.739153,-59.034657 45.526931,-69.884179 2.668315,-0.961762 -5.024402,-10.534802 -10.617317,-9.623773 19.221792,-7.470434 28.502352,5.118324 29.332062,29.50076 C 118.16847,53.242733 108.31941,37.539914 98.823745,42.956392 81.906718,49.532362 53.511075,117.52213 53.573386,117.34602 42.172448,86.88453 23.964748,45.971068 7.2013723,49.880209 3.2371641,49.929902 27.867494,15.244561 74.23951,11.633576 77.251079,10.275315 48.257046,-2.5122125 1.6084589,22.483097"
     inkscape:connector-curvature="0"
     style="fill:#b3b3b3;stroke:#999999;stroke-width:1.59533906"
     sodipodi:nodetypes="cccccccccccc" />
</svg>
